<svg width="140" height="34" viewBox="0 0 140 34" fill="none" xmlns="http://www.w3.org/2000/svg">
<path d="M139.808 9.13407C139.864 8.3075 139.239 7.59248 138.412 7.53702L124.942 6.63336C124.116 6.57791 123.401 7.20302 123.345 8.02959C123.29 8.85616 123.915 9.57118 124.742 9.62663L136.715 10.4299L135.911 22.403C135.856 23.2295 136.481 23.9446 137.308 24C138.134 24.0555 138.849 23.4304 138.905 22.6038L139.808 9.13407ZM1.20378 1.45695L0.178507 2.55185C49.3076 48.5566 110.518 35.3252 139.299 10.1629L138.312 9.03366L137.324 7.90438C109.516 32.2159 50.0606 45.1518 2.22905 0.362046L1.20378 1.45695Z" fill="#833036"/>
</svg>
