<svg width="27" height="54" viewBox="0 0 27 54" xmlns="http://www.w3.org/2000/svg">
  <g clip-path="url(#cut-left)">
    <path fill-rule="evenodd" clip-rule="evenodd" 
      d="M12.1698 5.84957C7.18134 6.57567 3.70056 8.92308 1.71428 12.9005C0.227551 15.8775 -0.254062 20.2367 0.550838 23.4313C1.33148 26.5299 3.20277 29.9404 6.08871 33.5242C9.65068 37.9475 15.1512 43.0757 21.3383 47.7415C22.3869 48.5323 26.1266 51.192 26.5503 51.4484C26.6988 51.5383 27.4567 51.0285 30.2033 48.9908C37.783 43.3674 44.2902 37.2241 48.2693 31.9351C52.0186 26.9514 53.5676 22.7798 53.1269 18.8528C52.2787 11.2949 46.0792 5.6957 38.5498 5.68751C34.682 5.68326 31.1532 7.13204 28.337 9.88039C27.9093 10.2978 27.3727 10.8758 27.1446 11.1648C26.9165 11.4539 26.7065 11.6904 26.678 11.6904C26.6495 11.6904 26.4395 11.4539 26.2114 11.1648C24.415 8.88845 21.4798 6.95266 18.6382 6.17006C16.9111 5.69435 14.1694 5.55853 12.1698 5.84957Z" 
      fill="white"/>
  </g>

  <defs>
    <!-- прямой срез ровно по центру -->
    <clipPath id="cut-left">
      <rect x="0" y="0" width="27" height="54"/>
    </clipPath>
  </defs>
</svg>
