<svg viewBox="0 0 445.387 125.959" xmlns="http://www.w3.org/2000/svg" xmlns:xlink="http://www.w3.org/1999/xlink" width="445.386719" height="125.958984" fill="none" customFrame="#000000">
	<path id="Vector" d="M183.219 3.31473C183.219 1.48406 184.703 0 186.533 0C188.364 0 189.848 1.48405 189.848 3.31473L189.848 90.1003C189.848 91.9309 188.364 93.415 186.533 93.415C184.703 93.415 183.219 91.9309 183.219 90.1003L183.219 3.31473ZM255.539 3.31473C255.539 1.48406 257.023 0 258.854 0C260.684 0 262.169 1.48405 262.169 3.31473L262.169 90.1003C262.169 91.9309 260.684 93.415 258.854 93.415C257.023 93.415 255.539 91.9309 255.539 90.1003L255.539 3.31473ZM171.164 8.13504C171.164 6.30437 172.648 4.82031 174.479 4.82031C176.309 4.82031 177.794 6.30437 177.794 8.13504L177.794 72.0188C177.794 73.8495 176.309 75.3336 174.479 75.3336C172.648 75.3336 171.164 73.8495 171.164 72.0188L171.164 8.13504ZM195.273 8.13504C195.273 6.30437 196.757 4.82031 198.588 4.82031C200.419 4.82031 201.903 6.30437 201.903 8.13504L201.903 94.9206C201.903 96.7513 200.419 98.2353 198.588 98.2353C196.757 98.2353 195.273 96.7513 195.273 94.9206L195.273 8.13504ZM243.484 8.13504C243.484 6.30437 244.968 4.82031 246.799 4.82031C248.63 4.82031 250.114 6.30437 250.114 8.13504L250.114 94.9206C250.114 96.7513 248.63 98.2353 246.799 98.2353C244.968 98.2353 243.484 96.7513 243.484 94.9206L243.484 8.13504ZM267.594 8.13504C267.594 6.30437 269.078 4.82031 270.908 4.82031C272.739 4.82031 274.223 6.30437 274.223 8.13504L274.223 72.0188C274.223 73.8495 272.739 75.3336 270.908 75.3336C269.078 75.3336 267.594 73.8495 267.594 72.0188L267.594 8.13504ZM159.109 16.5725C159.109 14.7419 160.593 13.2578 162.424 13.2578C164.255 13.2578 165.739 14.7419 165.739 16.5725L165.739 61.7733C165.739 63.604 164.255 65.0881 162.424 65.0881C160.593 65.0881 159.109 63.604 159.109 61.7733L159.109 16.5725ZM279.648 16.5725C279.648 14.7419 281.133 13.2578 282.963 13.2578C284.794 13.2578 286.278 14.7419 286.278 16.5725L286.278 61.7733C286.278 63.604 284.794 65.0881 282.963 65.0881C281.133 65.0881 279.648 63.604 279.648 61.7733L279.648 16.5725ZM207.328 21.3968C207.328 19.5661 208.812 18.082 210.643 18.082C212.474 18.082 213.958 19.5661 213.958 21.3968L213.958 108.182C213.958 110.013 212.474 111.497 210.643 111.497C208.812 111.497 207.328 110.013 207.328 108.182L207.328 21.3968ZM231.43 21.3968C231.43 19.5661 232.914 18.082 234.744 18.082C236.575 18.082 238.059 19.5661 238.059 21.3968L238.059 108.182C238.059 110.013 236.575 111.497 234.744 111.497C232.914 111.497 231.43 110.013 231.43 108.182L231.43 21.3968ZM60.8672 31.0374C60.8672 29.2067 62.3512 27.7227 64.1819 27.7227C66.0126 27.7227 67.4966 29.2067 67.4966 31.0374L67.4966 76.2382C67.4966 78.0689 66.0126 79.5529 64.1819 79.5529C62.3512 79.5529 60.8672 78.0689 60.8672 76.2382L60.8672 31.0374ZM109.688 32.846C109.688 31.0153 111.172 29.5312 113.002 29.5312C114.833 29.5312 116.317 31.0153 116.317 32.846L116.317 78.0468C116.317 79.8774 114.833 81.3615 113.002 81.3615C111.172 81.3615 109.688 79.8775 109.688 78.0468L109.688 32.846ZM330.266 32.846C330.266 31.0153 331.75 29.5312 333.58 29.5312C335.411 29.5312 336.895 31.0153 336.895 32.846L336.895 78.0468C336.895 79.8774 335.411 81.3615 333.58 81.3615C331.75 81.3615 330.266 79.8775 330.266 78.0468L330.266 32.846ZM378.484 32.846C378.484 31.0153 379.968 29.5312 381.799 29.5312C383.63 29.5312 385.114 31.0153 385.114 32.846L385.114 78.0468C385.114 79.8774 383.63 81.3615 381.799 81.3615C379.968 81.3615 378.484 79.8775 378.484 78.0468L378.484 32.846ZM219.375 35.8596C219.375 34.029 220.859 32.5449 222.69 32.5449C224.52 32.5449 226.004 34.029 226.004 35.8596L226.004 122.645C226.004 124.476 224.52 125.96 222.69 125.96C220.859 125.96 219.375 124.476 219.375 122.645L219.375 35.8596ZM36.1641 38.8733C36.1641 37.0426 37.6481 35.5586 39.4788 35.5586C41.3095 35.5586 42.7935 37.0426 42.7935 38.8733L42.7935 72.0206C42.7935 73.8512 41.3095 75.3353 39.4788 75.3353C37.6481 75.3353 36.1641 73.8512 36.1641 72.0206L36.1641 38.8733ZM48.2188 38.8733C48.2188 37.0426 49.7028 35.5586 51.5335 35.5586C53.3641 35.5586 54.8482 37.0426 54.8482 38.8733L54.8482 72.0206C54.8482 73.8512 53.3641 75.3353 51.5335 75.3353C49.7028 75.3353 48.2188 73.8512 48.2188 72.0206L48.2188 38.8733ZM72.9219 38.8733C72.9219 37.0426 74.4059 35.5586 76.2366 35.5586C78.0673 35.5586 79.5513 37.0426 79.5513 38.8733L79.5513 72.0206C79.5513 73.8512 78.0673 75.3353 76.2366 75.3353C74.4059 75.3353 72.9219 73.8512 72.9219 72.0206L72.9219 38.8733ZM96.4375 38.8733C96.4375 37.0426 97.9216 35.5586 99.7522 35.5586C101.583 35.5586 103.067 37.0426 103.067 38.8733L103.067 72.0206C103.067 73.8512 101.583 75.3353 99.7522 75.3353C97.9216 75.3353 96.4375 73.8512 96.4375 72.0206L96.4375 38.8733ZM122.945 38.8733C122.945 37.0426 124.429 35.5586 126.26 35.5586C128.091 35.5586 129.575 37.0426 129.575 38.8733L129.575 72.0206C129.575 73.8512 128.091 75.3353 126.26 75.3353C124.429 75.3353 122.945 73.8512 122.945 72.0206L122.945 38.8733ZM147.055 38.8733C147.055 37.0426 148.539 35.5586 150.369 35.5586C152.2 35.5586 153.684 37.0426 153.684 38.8733L153.684 72.0206C153.684 73.8512 152.2 75.3353 150.369 75.3353C148.539 75.3353 147.055 73.8512 147.055 72.0206L147.055 38.8733ZM291.695 38.8733C291.695 37.0426 293.179 35.5586 295.01 35.5586C296.841 35.5586 298.325 37.0426 298.325 38.8733L298.325 72.0206C298.325 73.8512 296.841 75.3353 295.01 75.3353C293.179 75.3353 291.695 73.8512 291.695 72.0206L291.695 38.8733ZM318.219 38.8733C318.219 37.0426 319.703 35.5586 321.533 35.5586C323.364 35.5586 324.848 37.0426 324.848 38.8733L324.848 72.0206C324.848 73.8512 323.364 75.3353 321.533 75.3353C319.703 75.3353 318.219 73.8512 318.219 72.0206L318.219 38.8733ZM342.32 38.8733C342.32 37.0426 343.804 35.5586 345.635 35.5586C347.466 35.5586 348.95 37.0426 348.95 38.8733L348.95 72.0206C348.95 73.8512 347.466 75.3353 345.635 75.3353C343.804 75.3353 342.32 73.8512 342.32 72.0206L342.32 38.8733ZM366.43 38.8733C366.43 37.0426 367.914 35.5586 369.744 35.5586C371.575 35.5586 373.059 37.0426 373.059 38.8733L373.059 72.0206C373.059 73.8512 371.575 75.3353 369.744 75.3353C367.914 75.3353 366.43 73.8512 366.43 72.0206L366.43 38.8733ZM390.539 38.8733C390.539 37.0426 392.023 35.5586 393.854 35.5586C395.684 35.5586 397.169 37.0426 397.169 38.8733L397.169 72.0206C397.169 73.8512 395.684 75.3353 393.854 75.3353C392.023 75.3353 390.539 73.8512 390.539 72.0206L390.539 38.8733ZM402.594 38.8733C402.594 37.0426 404.078 35.5586 405.908 35.5586C407.739 35.5586 409.223 37.0426 409.223 38.8733L409.223 72.0206C409.223 73.8512 407.739 75.3353 405.908 75.3353C404.078 75.3353 402.594 73.8512 402.594 72.0206L402.594 38.8733ZM23.5078 44.8987C23.5078 43.068 24.9919 41.584 26.8225 41.584C28.6532 41.584 30.1373 43.068 30.1373 44.8987L30.1373 65.9924C30.1373 67.8231 28.6532 69.3071 26.8225 69.3071C24.9919 69.3071 23.5078 67.8231 23.5078 65.9924L23.5078 44.8987ZM84.3828 46.7073C84.3828 44.8766 85.8669 43.3926 87.6975 43.3926C89.5282 43.3926 91.0123 44.8766 91.0123 46.7073L91.0123 67.801C91.0123 69.6317 89.5282 71.1157 87.6975 71.1157C85.8669 71.1157 84.3828 69.6317 84.3828 67.801L84.3828 46.7073ZM133.797 46.7073C133.797 44.8766 135.281 43.3926 137.112 43.3926C138.942 43.3926 140.426 44.8766 140.426 46.7073L140.426 67.801C140.426 69.6317 138.942 71.1157 137.112 71.1157C135.281 71.1157 133.797 69.6317 133.797 67.801L133.797 46.7073ZM304.961 46.7073C304.961 44.8766 306.445 43.3926 308.276 43.3926C310.106 43.3926 311.59 44.8766 311.59 46.7073L311.59 67.801C311.59 69.6317 310.106 71.1157 308.276 71.1157C306.445 71.1157 304.961 69.6317 304.961 67.801L304.961 46.7073ZM354.375 46.7073C354.375 44.8766 355.859 43.3926 357.69 43.3926C359.52 43.3926 361.004 44.8766 361.004 46.7073L361.004 67.801C361.004 69.6317 359.52 71.1157 357.69 71.1157C355.859 71.1157 354.375 69.6317 354.375 67.801L354.375 46.7073ZM414.648 46.7073C414.648 44.8766 416.133 43.3926 417.963 43.3926C419.794 43.3926 421.278 44.8766 421.278 46.7073L421.278 67.801C421.278 69.6317 419.794 71.1157 417.963 71.1157C416.133 71.1157 414.648 69.6317 414.648 67.801L414.648 46.7073ZM11.4531 51.5296C11.4531 49.6989 12.9372 48.2148 14.7679 48.2148C16.5985 48.2148 18.0826 49.6989 18.0826 51.5296L18.0826 58.159C18.0826 59.9897 16.5985 61.4737 14.7679 61.4737C12.9372 61.4737 11.4531 59.9897 11.4531 58.159L11.4531 51.5296ZM426.703 53.3382C426.703 51.5075 428.187 50.0234 430.018 50.0234C431.849 50.0234 433.333 51.5075 433.333 53.3382L433.333 59.9676C433.333 61.7983 431.849 63.2823 430.018 63.2823C428.187 63.2823 426.703 61.7983 426.703 59.9676L426.703 53.3382ZM0 53.9397C0 52.1091 1.48405 50.625 3.31473 50.625C5.1454 50.625 6.62945 52.1091 6.62945 53.9397L6.62945 56.3504C6.62945 58.1811 5.1454 59.6652 3.31473 59.6652C1.48405 59.6652 0 58.1811 0 56.3504L0 53.9397ZM438.758 55.7483C438.758 53.9176 440.242 52.4336 442.073 52.4336C443.903 52.4336 445.387 53.9176 445.387 55.7483L445.387 58.159C445.387 59.9897 443.903 61.4738 442.073 61.4738C440.242 61.4738 438.758 59.9897 438.758 58.159L438.758 55.7483Z" fill="rgb(131,48,54)" fill-rule="evenodd" />
</svg>
