<svg width="66" height="66" viewBox="0 0 66 66" fill="none" xmlns="http://www.w3.org/2000/svg">
<circle cx="32.733" cy="33.12" r="32.741" fill="#FAFAFA"/>
<path fill-rule="evenodd" clip-rule="evenodd" d="M24.4221 21.8344C24.4639 21.4802 24.5878 21.1407 24.784 20.8429C24.9801 20.5451 25.2431 20.2972 25.552 20.119C25.8609 19.9408 26.2072 19.8372 26.5632 19.8164C26.9192 19.7956 27.2751 19.8583 27.6026 19.9993C29.2584 20.7072 32.969 22.3895 37.6775 25.107C42.3875 27.8261 45.7006 30.2006 47.1396 31.2779C48.3682 32.1994 48.3713 34.0266 47.1411 34.9511C45.7161 36.0222 42.4436 38.3655 37.6774 41.1189C32.9066 43.8722 29.2396 45.5342 27.5994 46.2327C26.1869 46.836 24.6059 45.9208 24.422 44.3976C24.2068 42.6171 23.8046 38.5744 23.8046 33.1144C23.8047 27.6576 24.2054 23.6164 24.4221 21.8344Z" fill="#591E25"/>
</svg>
