<svg width="49" height="49" viewBox="0 0 49 49" fill="none" xmlns="http://www.w3.org/2000/svg">
<ellipse cx="24.6714" cy="24.5472" rx="23.8688" ry="23.8694" fill="#8D2A30"/>
<g clip-path="url(#clip0_2956_656)">
<path fill-rule="evenodd" clip-rule="evenodd" d="M18.6454 16.3178C18.6759 16.0596 18.7662 15.8121 18.9092 15.595C19.0523 15.3778 19.244 15.1971 19.4692 15.0672C19.6944 14.9373 19.9468 14.8617 20.2063 14.8466C20.4659 14.8314 20.7254 14.8771 20.9641 14.98C22.1712 15.496 24.8764 16.7224 28.309 18.7036C31.7427 20.6859 34.158 22.417 35.2071 23.2024C36.1028 23.8741 36.105 25.2062 35.2082 25.8803C34.1694 26.6611 31.7836 28.3694 28.3089 30.3767C24.8308 32.384 22.1575 33.5956 20.9618 34.1048C19.932 34.5447 18.7795 33.8775 18.6453 32.767C18.4885 31.469 18.1952 28.5217 18.1953 24.5412C18.1953 20.563 18.4874 17.6169 18.6454 16.3178Z" fill="#FFECE1"/>
</g>
<defs>
<clipPath id="clip0_2956_656">
<rect width="27.2787" height="27.2793" fill="white" transform="translate(12.1875 10.9062)"/>
</clipPath>
</defs>
</svg>
