<svg width="41" height="41" viewBox="0 0 41 41" fill="none" xmlns="http://www.w3.org/2000/svg">
<g clip-path="url(#clip0_2956_299)">
<path fill-rule="evenodd" clip-rule="evenodd" d="M28.3092 13.2546C28.5531 13.152 28.8201 13.1165 29.0823 13.1521C29.3445 13.1876 29.5924 13.2928 29.8002 13.4566C30.008 13.6205 30.1681 13.837 30.2638 14.0837C30.3595 14.3304 30.3873 14.5983 30.3443 14.8594L28.1059 28.437C27.8888 29.7466 26.4518 30.4977 25.2507 29.8453C24.2459 29.2996 22.7537 28.4587 21.4114 27.5813C20.7403 27.1421 18.6844 25.7357 18.9371 24.7349C19.1542 23.8792 22.6086 20.6637 24.5825 18.752C25.3572 18.0009 25.0039 17.5676 24.089 18.2585C21.817 19.9738 18.1692 22.5823 16.9632 23.3166C15.8992 23.9641 15.3446 24.0746 14.6813 23.9641C13.4713 23.7627 12.3492 23.4509 11.4333 23.0709C10.1956 22.5577 10.2558 20.8561 11.4323 20.3607L28.3092 13.2546Z" fill="white"/>
</g>
<defs>
<clipPath id="clip0_2956_299">
<rect width="23.687" height="23.687" fill="white" transform="translate(8.79297 8.88086)"/>
</clipPath>
</defs>
</svg>
