<svg width="41" height="41" viewBox="0 0 41 41" fill="none" xmlns="http://www.w3.org/2000/svg">
<g clip-path="url(#clip0_2956_304)">
<path fill-rule="evenodd" clip-rule="evenodd" d="M15.9367 11.8418C14.8315 11.8418 13.7716 12.2808 12.9901 13.0623C12.2086 13.8438 11.7695 14.9037 11.7695 16.0089V26.4268C11.7695 27.532 12.2086 28.5919 12.9901 29.3734C13.7716 30.1549 14.8315 30.594 15.9367 30.594H26.3546C27.4598 30.594 28.5197 30.1549 29.3012 29.3734C30.0827 28.5919 30.5217 27.532 30.5217 26.4268V16.0089C30.5217 14.9037 30.0827 13.8438 29.3012 13.0623C28.5197 12.2808 27.4598 11.8418 26.3546 11.8418H15.9367ZM26.7004 19.1916C26.8538 18.9617 26.9095 18.6803 26.8554 18.4094C26.8013 18.1384 26.6417 17.9 26.4119 17.7466C26.182 17.5933 25.9006 17.5376 25.6296 17.5917C25.3586 17.6458 25.1202 17.8053 24.9669 18.0352C24.5981 18.5249 24.2116 18.9937 23.7595 19.4104C23.2354 19.8938 22.7052 20.2563 22.1884 20.4709L22.1801 18.4915C22.1503 18.2381 22.0284 18.0045 21.8378 17.8349C21.6471 17.6653 21.4008 17.5717 21.1456 17.5716C20.581 17.6039 20.1038 18.0206 20.1038 18.6134V23.1692C18.0744 22.6066 16.9785 20.6376 16.9785 18.6134C16.9785 18.3371 16.8687 18.0721 16.6733 17.8768C16.478 17.6814 16.213 17.5716 15.9367 17.5716C15.6604 17.5716 15.3954 17.6814 15.2 17.8768C15.0047 18.0721 14.8949 18.3371 14.8949 18.6134C14.8949 22.3972 17.5098 25.385 21.1456 25.385C21.4219 25.385 21.6869 25.2753 21.8823 25.0799C22.0776 24.8845 22.1874 24.6195 22.1874 24.3432V22.7149C23.5751 22.8254 24.9211 23.8057 25.4232 24.8089C25.4817 24.9356 25.5651 25.0492 25.6683 25.143C25.7716 25.2369 25.8926 25.309 26.0243 25.3552C26.1559 25.4013 26.2955 25.4206 26.4348 25.4117C26.574 25.4029 26.7101 25.3662 26.8349 25.3038C26.9596 25.2415 27.0706 25.1546 27.1612 25.0485C27.2518 24.9424 27.3202 24.8192 27.3623 24.6862C27.4043 24.5531 27.4192 24.413 27.4061 24.2741C27.393 24.1352 27.3521 24.0004 27.2859 23.8776C26.7879 22.8806 25.8587 21.9482 24.7148 21.3398C24.869 21.2137 25.0221 21.0804 25.1732 20.9418C25.7471 20.4184 26.2595 19.8312 26.7004 19.1916Z" fill="white"/>
</g>
<defs>
<clipPath id="clip0_2956_304">
<rect width="23.687" height="23.687" fill="white" transform="translate(8.80859 8.88086)"/>
</clipPath>
</defs>
</svg>
